<svg width="200" height="200" viewBox="0 0 200 200" fill="none" xmlns="http://www.w3.org/2000/svg">
<path d="M115.06 40.5202C116.76 40.4702 117.06 38.3902 116.06 37.2502C115.86 37.062 115.624 36.9169 115.365 36.824C115.107 36.7311 114.833 36.6923 114.559 36.7101C114.285 36.728 114.017 36.802 113.773 36.9276C113.529 37.0532 113.314 37.2277 113.14 37.4402C111.93 38.8702 112.73 41.0002 115.06 40.5202ZM115.58 37.9602C116.16 38.7002 116.13 39.9602 115.02 40.1802C114.13 40.1802 113.37 39.8802 113.37 38.9902C113.38 37.7502 114.81 37.0002 115.58 38.0002V37.9602ZM123.4 40.3402C125.1 40.2902 125.4 38.2102 124.4 37.0702C124.205 36.8733 123.969 36.7206 123.71 36.6224C123.451 36.5241 123.173 36.4826 122.897 36.5006C122.62 36.5186 122.35 36.5957 122.106 36.7268C121.862 36.8578 121.648 37.0397 121.48 37.2602C120.28 38.6802 121.06 40.8202 123.4 40.3402ZM123.92 37.7802C124.5 38.5202 124.46 39.7802 123.36 40.0002C122.47 40.0002 121.71 39.7002 121.71 38.8102C121.71 37.5702 123.15 36.7902 123.92 37.7802Z" fill="black"/>
<path d="M129.24 51.0603C157.87 48.7203 149.12 18.4303 123.79 19.0603C95.3299 19.8503 86.78 54.5403 129.24 51.0603ZM105.51 27.0003C113.61 19.0003 129.76 17.1203 139.51 24.6003C150.44 32.9403 149.22 49.0803 129.17 50.7103C118.28 51.5903 110.82 49.7803 106.27 46.7703C98.7799 41.8103 99.2299 33.2303 105.51 27.0003Z" fill="black"/>
<path d="M131.13 40.0001C132.83 40.0001 133.18 37.8701 132.13 36.7301C131.93 36.5419 131.694 36.3968 131.436 36.3039C131.177 36.2109 130.903 36.1722 130.629 36.19C130.355 36.2078 130.087 36.2818 129.843 36.4074C129.599 36.5331 129.384 36.7075 129.21 36.9201C128 38.3601 128.82 40.4801 131.13 40.0001ZM131.65 37.4401C132.23 38.1801 132.19 39.4401 131.09 39.6701C130.21 39.6701 129.44 39.3601 129.44 38.4701C129.45 37.2401 130.88 36.4501 131.65 37.4401ZM97.28 108.79C97.87 108.48 99.16 107.14 98.96 106.51C99.34 105.51 105.23 86.7001 106.85 80.6301C107.095 79.9925 107.21 79.3127 107.19 78.6301C107.08 78.4101 106.9 78.3901 106.68 78.3801L87.62 78.6801C87.31 64.2901 85.9 23.8701 84.3 10.5801C84.58 10.5801 84.89 10.5801 84.98 10.2401C85.32 9.00008 85.61 6.79008 84.65 5.95008C82.31 3.90008 7.15002 5.75008 6.19002 6.10008C5.23002 6.45008 5.19002 9.26008 5.37002 10.4601C5.37002 10.7501 5.86002 10.8601 6.14002 10.9301C4.34002 22.4201 6.05002 102.13 7.63002 109.01C7.71002 109.35 7.82002 109.68 8.11001 109.75C8.76762 109.907 9.43621 110.014 10.11 110.07C11.19 118.48 18.57 120.07 27.05 118.72C35.0108 117.372 42.5807 114.3 49.23 109.72C55.5 109.5 48.93 109.78 60.62 109.83C64.13 109.81 95.6 109.7 97.28 108.79ZM50.11 103.32C52.11 103.32 54.65 103.58 56.11 105.07C56.39 105.36 57.11 106.23 56.76 106.41C55.84 106.9 51.23 106.73 49.98 106.75L50.11 103.32ZM49.92 107.08L51.36 107.23C51.3759 107.778 51.5344 108.312 51.82 108.78L49.82 108.85L49.92 107.08ZM106.33 79.2401C105.65 82.3601 99.21 103.32 98.33 106.05C90.64 105.73 79.14 106.17 63.59 106.6C64.28 104.27 70.8 82.0001 71.59 79.8301C71.64 79.7301 106.23 79.2401 106.33 79.2401ZM5.76002 10.3801C5.51002 8.71008 5.91002 6.57008 6.31002 6.38008C6.88002 6.17008 80.56 5.04008 84.11 6.58008C84.3572 6.92229 84.4806 7.33842 84.46 7.76008C84.4873 8.434 84.4131 9.1082 84.24 9.76008C84.15 9.76008 27.9 11.1301 21.24 11.1201C19.54 11.1201 7.00002 11.1601 5.76002 10.3801ZM10.18 34.4901C10.12 33.9601 10.06 32.3401 10.01 30.1901C12.12 30.9201 23.61 30.9401 25.85 30.9401C27.48 30.9401 56.02 30.3001 60.66 30.1101C62.29 30.0501 78.66 29.2301 80.33 29.0301C80.3613 30.4112 80.3213 31.7931 80.21 33.1701C80.15 33.1701 36.62 34.8601 31.01 34.9701C29 35.0001 11.94 35.3901 10.18 34.4901ZM80.24 23.7701C31.62 24.8701 11.71 25.5401 9.94002 24.7701V19.3901C13.94 20.3901 50.13 19.5301 53.28 19.4501C56.68 19.3501 77.91 18.4501 80.08 18.3001C80.13 20.0901 80.2 22.0001 80.24 23.7701ZM9.94002 25.1701C13.3 26.2801 51.14 25.3301 53.41 25.2601C56.83 25.1701 78.41 24.2101 80.25 24.1201C80.25 25.7501 80.32 27.3101 80.33 28.6901C48 29.5101 12.62 31.0001 10 29.8301C10 28.4301 10 26.8401 9.94002 25.1701ZM80 18.0001C45.16 18.7901 12 19.7801 9.88002 19.0801V14.5301C13.75 15.5901 50.52 14.6801 53.26 14.6001C56.53 14.5101 76.26 13.6001 79.72 13.4701C79.89 14.7501 80 16.3101 80 18.0001ZM79.74 13.1201C37.88 14.1201 11.8 14.8801 9.93002 14.1901C9.93002 13.4001 9.93002 12.1901 10.05 11.3801C24.28 12.2501 55.86 11.2901 79.54 10.7401C79.66 11.4001 79.73 12.4301 79.78 13.1101L79.74 13.1201ZM8.45002 109C6.93002 104.22 4.78002 22.7301 6.45002 11.0001C7.5333 11.1727 8.62474 11.2895 9.72002 11.3501C9.38002 15.2201 9.38002 33.0001 9.61002 34.6401C9.6276 34.7169 9.66178 34.7889 9.71015 34.8511C9.75852 34.9133 9.81991 34.9641 9.89002 35.0001C10.7595 35.2865 11.6652 35.4481 12.58 35.4801C12.3517 38.9615 12.4487 42.4567 12.87 45.9201C9.66002 46.3001 9.36001 51.2501 13.69 50.4801C16.8 50.3501 16.12 45.9501 13.25 45.9001C13.475 42.4342 13.3644 38.9547 12.92 35.5101C16.59 35.7801 23.26 35.8201 31.03 35.7201C36.64 35.6401 79.36 34.0801 80.1 34.0201C80.49 34.0201 80.87 34.0201 80.97 33.6601C81.6 31.3401 80.72 13.2801 80.41 10.7101L83.56 10.6301C85.12 23.9001 86.45 63.2601 86.78 78.7101C83.63 78.7601 72.01 78.9201 71.29 79.1101C71.09 79.1701 71.02 79.3201 70.92 79.5801C70.57 80.5101 69.8 83.1801 69.52 84.1401C64.8584 80.3873 59.5468 77.5231 53.85 75.6901C53.9503 75.1203 54.0805 74.5562 54.24 74.0001C55.4312 73.9566 56.5901 73.6012 57.6009 72.9695C58.6117 72.3377 59.4389 71.4517 60 70.4001C61.21 68.4001 62 65.2501 61.92 60.3001C62.0027 60.3247 62.0904 60.3275 62.1745 60.3083C62.2586 60.289 62.3363 60.2483 62.4 60.1901C62.7894 59.8785 63.1269 59.5073 63.4 59.0901C63.89 57.2431 63.7456 55.2852 62.99 53.5301C62.21 51.2301 61.86 49.6501 59.99 47.6301C58.537 46.0247 56.5982 44.9394 54.47 44.5401C52.5901 44.3735 50.6957 44.512 48.86 44.9501C48.0352 45.1956 47.2648 45.5961 46.59 46.1301C46.1806 46.4758 45.8412 46.8967 45.59 47.3701C45.1 48.0501 43.95 48.1001 43.06 48.5301C41.249 49.7026 39.9048 51.4713 39.26 53.5301C38.8109 54.8165 38.5745 56.1676 38.56 57.5301C37.82 56.7101 36.65 55.7501 35.66 56.2301C34.67 56.7101 33.74 60.0001 33.75 61.6001C33.76 63.2001 34.37 63.1901 35.83 63.1901C35.1647 63.7473 34.6116 64.426 34.2 65.1901C33.52 66.2601 33.55 66.3301 32.43 66.7901C31.86 67.0301 31.34 67.1301 31.34 67.5601C31.3384 67.6467 31.3635 67.7318 31.4121 67.8035C31.4607 67.8753 31.5302 67.9303 31.6113 67.961C31.6924 67.9916 31.7809 67.9965 31.8648 67.9748C31.9487 67.9532 32.0239 67.9061 32.08 67.8401L32.75 67.5701C33.2309 67.4292 33.6743 67.1829 34.048 66.849C34.4216 66.5151 34.7161 66.1021 34.91 65.6401C35.75 64.3201 36.33 63.5101 37.91 63.1801C37.0717 63.7553 36.3818 64.521 35.8968 65.4145C35.4118 66.308 35.1456 67.3038 35.12 68.3201C33.64 69.3801 31.45 71.2101 30.68 72.8501C29.91 74.4901 29.42 76.9501 30.8 77.7801C23.7707 81.1638 18.1485 86.9027 14.91 94.0001C12.17 98.4001 9.65002 104.1 10.02 109.31C9.49109 109.237 8.96686 109.134 8.45002 109ZM13.15 46.7001C13.589 46.691 14.0168 46.8393 14.3561 47.118C14.6953 47.3968 14.9237 47.7877 15 48.2201C15.31 49.5801 14.13 50.6001 12.29 49.9701C10.45 49.3401 11.27 46.8001 13.15 46.7301V46.7001ZM38.46 58.9101C38.6635 59.8988 39.1064 60.8224 39.75 61.6001C39.7594 61.6999 39.7594 61.8003 39.75 61.9001C38.1122 62.2797 36.4247 62.3978 34.75 62.2501C34.6081 61.8734 34.5768 61.4639 34.66 61.0701C34.7611 59.6413 35.1741 58.252 35.87 57.0001C36.6 56.6301 38 58.2001 38.46 58.9101ZM40.32 76.0001C43.45 76.1201 43.55 72.2901 44.18 72.0001C44.9062 71.552 45.4771 70.8914 45.8152 70.1079C46.1533 69.3244 46.2423 68.4559 46.07 67.6201C46.07 67.4401 44.89 64.9901 44.75 64.5601C44.32 63.2801 43.1 62.0301 44.27 60.8501C45 60.0001 45.68 61.0001 46.16 62.0001C46.1871 62.0707 46.2315 62.1334 46.2891 62.1824C46.3468 62.2313 46.4159 62.2649 46.49 62.2801C47.16 62.4001 48.02 60.8901 48.7 60.5601C49.9022 60.091 51.0125 59.414 51.98 58.5601C52.71 57.8401 53.21 56.3701 54.04 55.9601C55.5806 55.3484 57.1651 54.8537 58.78 54.4801C59.13 55.6001 58.55 55.7301 61.11 59.1801C61.26 59.3801 61.37 59.6801 61.51 59.9201C61.5146 60.0033 61.5146 60.0868 61.51 60.1701C61.66 65.0901 60.71 68.1701 59.51 70.1701C58.9639 71.1458 58.1626 71.9544 57.1919 72.5093C56.2213 73.0643 55.1178 73.3445 54 73.3201C53.9257 73.3144 53.8516 73.334 53.7899 73.3758C53.7282 73.4175 53.6824 73.479 53.66 73.5501C53.66 73.5501 53.31 74.7601 53.18 75.4601C53.02 76.3101 53.18 76.2501 54.02 76.5601C56.11 77.2545 58.1428 78.1104 60.1 79.1201C59.0752 82.101 57.5759 84.897 55.66 87.4001C55.24 87.9101 54.06 89.9801 53.26 89.7201C51.37 89.0801 40.93 79.5401 38.26 76.4801L38 76.1901C38.769 76.0818 39.5436 76.0183 40.32 76.0001ZM17.74 90.4101C17.7107 90.4193 17.6793 90.4193 17.65 90.4101C17.6747 90.4332 17.7064 90.4472 17.74 90.4501V90.4101ZM26.91 117.86C21.79 118.66 15.08 118.64 12.34 114.25C8.22002 107.69 12.49 97.9501 16.92 91.6001C17.11 91.3201 17.6 90.6001 17.82 90.3801C22.2616 83.4589 29.1439 78.4614 37.1 76.3801C38.51 78.3801 50.68 89.7301 53.03 90.5201C54.48 91.0001 55.6 88.8401 56.33 87.9201C58.3004 85.3426 59.8311 82.457 60.86 79.3801C63.8707 80.8796 66.7106 82.7002 69.33 84.8101C68.1859 88.7604 67.0758 92.7206 66 96.6901C65.77 95.1117 65.3014 93.5775 64.61 92.1401C64.5925 92.1017 64.5613 92.0712 64.5225 92.0545C64.4837 92.0379 64.4401 92.0363 64.4001 92.05C64.3602 92.0637 64.3268 92.0918 64.3065 92.1288C64.2861 92.1658 64.2802 92.209 64.29 92.2501C64.397 93.4917 64.635 94.7185 65 95.9101C65.1766 96.5228 65.4075 97.1184 65.69 97.6901C64.44 102.17 63.39 105.95 63.2 106.62C56.74 106.81 57.38 106.83 57.44 106.73C57.85 106.05 57.14 105.12 56.59 104.56C55.9371 103.97 55.1719 103.519 54.3402 103.232C53.5086 102.945 52.6276 102.829 51.75 102.89C51.2085 102.891 50.6675 102.924 50.13 102.99L50.19 101.81C50.1948 101.726 50.172 101.642 50.1251 101.572C50.0782 101.501 50.0098 101.448 49.93 101.42C45.18 99.7501 37.74 98.2401 32 98.5901C32.8997 95.8952 33.4475 93.0953 33.63 90.2601C33.6335 90.2188 33.6218 90.1777 33.5971 90.1444C33.5724 90.1112 33.5364 90.0881 33.4959 90.0795C33.4554 90.0709 33.4131 90.0774 33.3771 90.0978C33.341 90.1181 33.3136 90.151 33.3 90.1901C32.4173 92.9221 31.8569 95.7479 31.63 98.6101C28.6688 98.7093 25.7969 99.6492 23.35 101.32C23.3346 101.335 23.3223 101.353 23.314 101.373C23.3056 101.392 23.3013 101.414 23.3013 101.435C23.3013 101.457 23.3056 101.478 23.314 101.498C23.3223 101.517 23.3346 101.535 23.35 101.55C23.75 102.09 25.35 98.9401 33.82 99.0801C39.1197 99.3348 44.3559 100.345 49.37 102.08L49 108.83C42.3952 113.445 34.8518 116.542 26.91 117.9V117.86Z" fill="black"/>
<path d="M83.5998 95.6504C85.7203 95.8055 87.8493 95.8055 89.9698 95.6504C90.0272 95.6464 90.0831 95.6298 90.1333 95.6018C90.1836 95.5737 90.227 95.5348 90.2604 95.488C90.2939 95.4411 90.3166 95.3875 90.3268 95.3308C90.3371 95.2742 90.3347 95.216 90.3198 95.1604C90.2398 94.2404 88.3798 91.5204 87.6998 90.8104C87.3598 90.4504 87.2598 90.4604 86.9098 90.8104C85.625 92.0691 84.4938 93.4756 83.5398 95.0004C83.4198 95.2604 83.3798 95.5104 83.5998 95.6504ZM87.2798 90.8104C87.7423 91.3272 88.1356 91.9021 88.4498 92.5204C88.9345 93.3403 89.3558 94.1961 89.7098 95.0804C88.8098 95.0804 85.1498 95.1904 84.1398 95.0804C85.0913 93.5894 86.1402 92.163 87.2798 90.8104ZM94.9998 55.5604C96.6075 55.426 98.1389 54.8168 99.3998 53.8104C100.689 52.9199 101.818 51.8176 102.74 50.5504C102.96 50.2104 102.47 50.1304 102.46 50.3904C100.864 51.7585 99.173 53.0116 97.3998 54.1404C96.6427 54.6258 95.8214 55.0028 94.9598 55.2604C94.9341 55.2782 94.9137 55.3028 94.9011 55.3314C94.8884 55.36 94.8839 55.3916 94.8881 55.4226C94.8922 55.4536 94.9048 55.4829 94.9245 55.5072C94.9442 55.5315 94.9703 55.5499 94.9998 55.5604ZM102.45 50.4104C102.459 50.4652 102.487 50.5149 102.53 50.5504C102.503 50.5385 102.48 50.5189 102.464 50.494C102.448 50.4691 102.439 50.44 102.44 50.4104H102.45ZM55.3298 67.6504C55.3172 67.6928 55.3216 67.7385 55.3421 67.7777C55.3627 67.8169 55.3977 67.8466 55.4398 67.8604C55.6798 67.9804 56.0298 68.1804 56.4398 68.3304C57.1898 68.6304 57.9398 68.6204 58.1798 67.8504C58.3051 67.0653 58.3051 66.2654 58.1798 65.4804C58.0921 64.7271 57.9211 63.9859 57.6698 63.2704C57.6618 63.2253 57.6363 63.1852 57.5988 63.159C57.5613 63.1327 57.5149 63.1224 57.4698 63.1304C57.4247 63.1383 57.3846 63.1639 57.3584 63.2014C57.3321 63.2389 57.3218 63.2853 57.3298 63.3304V64.8904C57.4117 65.8019 57.4117 66.7189 57.3298 67.6304C57.3298 67.7204 57.2298 67.7404 57.1498 67.7504C56.2698 67.8404 55.4298 67.3404 55.3298 67.6504ZM54.7598 63.5904C54.7642 63.4045 54.7911 63.2198 54.8398 63.0404C54.8667 62.9918 54.8838 62.9384 54.8901 62.8832C54.8963 62.828 54.8917 62.7721 54.8764 62.7187C54.861 62.6653 54.8354 62.6155 54.8008 62.572C54.7662 62.5285 54.7234 62.4923 54.6748 62.4654C54.6262 62.4385 54.5728 62.4214 54.5176 62.4151C54.4624 62.4088 54.4065 62.4135 54.3531 62.4288C54.2997 62.4441 54.2499 62.4698 54.2064 62.5044C54.1629 62.539 54.1267 62.5818 54.0998 62.6304C53.9691 62.9473 53.9044 63.2876 53.9098 63.6304C53.9295 63.7317 53.9851 63.8226 54.0663 63.8864C54.1475 63.9501 54.2489 63.9826 54.3521 63.9777C54.4552 63.9729 54.5532 63.9311 54.628 63.8599C54.7029 63.7888 54.7497 63.6931 54.7598 63.5904ZM60.3198 63.5804C60.3299 63.5046 60.3186 63.4275 60.2872 63.3578C60.2558 63.2881 60.2055 63.2286 60.1421 63.186C60.0786 63.1433 60.0045 63.1193 59.9282 63.1165C59.8518 63.1138 59.7761 63.1324 59.7098 63.1704C59.3398 63.3604 59.4998 63.8704 59.4998 64.1704C59.4998 64.2818 59.544 64.3886 59.6228 64.4674C59.7016 64.5461 59.8084 64.5904 59.9198 64.5904C60.0312 64.5904 60.138 64.5461 60.2168 64.4674C60.2955 64.3886 60.3398 64.2818 60.3398 64.1704C60.3232 63.9742 60.3165 63.7773 60.3198 63.5804ZM53.4898 60.4204C53.9277 60.3674 54.3716 60.3946 54.7998 60.5004C55.7998 60.6904 55.7998 60.8504 55.8898 60.6904C55.9798 60.5304 55.3598 59.9304 55.0498 59.7804C54.5186 59.5607 53.9355 59.4982 53.3698 59.6004C52.7698 59.7104 51.8998 60.2604 52.0198 60.4904C52.1398 60.7204 52.1398 60.5304 53.4898 60.4204ZM59.9398 61.3204L60.2598 61.4304C60.3598 61.4304 60.9898 61.5904 61.0598 61.5004C61.1298 61.4104 60.7998 60.8204 60.5298 60.6604C59.6798 60.1604 58.8598 60.7504 58.9898 61.0204C59.3005 61.1383 59.6177 61.2384 59.9398 61.3204ZM55.6498 70.4404C55.3993 70.3974 55.1588 70.3093 54.9398 70.1804C54.6698 70.047 54.4205 69.8752 54.1998 69.6704C53.8098 69.3404 53.4098 69.0304 53.3298 68.9404C53.3061 68.9078 53.2717 68.8847 53.2326 68.8751C53.1934 68.8656 53.1522 68.8702 53.1162 68.8882C53.0802 68.9062 53.0517 68.9364 53.0359 68.9735C53.0201 69.0105 53.0179 69.0519 53.0298 69.0904C53.2498 70.4204 54.6598 71.3504 55.7298 70.7704C55.9998 70.7304 55.8698 70.3904 55.6498 70.4404ZM191.2 95.0004C191.47 95.0004 191.79 95.0004 191.88 94.6604C192.22 93.4304 192.51 91.2104 191.55 90.3704C189.18 88.3104 114.04 90.1604 113.09 90.5104C112.14 90.8604 112.09 93.6604 112.27 94.8604C112.27 95.1504 112.76 95.2704 113.04 95.3404C111.58 104.67 112.57 150.89 112.85 161.02C110.36 159.31 103.3 154.74 100.33 154.26C99.7798 154.18 100.33 151.99 98.8998 151.26C98.6947 151.156 98.4573 151.136 98.2373 151.203C98.0173 151.27 97.8318 151.42 97.7198 151.62C97.4008 152.15 97.1425 152.713 96.9498 153.3C96.7198 153.5 95.8798 153.43 95.5798 153.4C93.3998 153.17 91.0698 152.4 90.4498 153.55C90.3379 153.79 90.3018 154.059 90.3465 154.319C90.3912 154.58 90.5144 154.821 90.6998 155.01C91.7698 156.01 96.0998 157.23 97.2398 157.71C98.2398 159.64 103.89 174.64 113.57 181.12C113.63 182.45 114.09 193.21 114.76 194C115.65 195 130.15 194.73 131.37 194.84C139.37 195.51 173.5 193.35 193.43 192.84C193.62 192.84 193.89 192.69 194.05 192.25C196.21 186.09 192.82 108.52 191.2 95.0004ZM112.65 94.7804C112.41 93.1104 112.8 90.9704 113.2 90.7804C113.6 90.5904 187.2 89.4204 191 90.9804C191.249 91.3215 191.373 91.7384 191.35 92.1604C191.376 92.8337 191.306 93.5073 191.14 94.1604C191.05 94.1604 134.8 95.5304 128.14 95.5204C126.63 95.5604 113.84 95.6004 112.65 94.8204V94.7804ZM182.11 167.67C184.11 171.25 186.77 179.67 187.93 183.62C184.45 183.93 171.17 185.23 169 185.7C168.9 185.7 169 185.87 168.6 183.7C168.38 182.49 167.42 178.57 167.37 178.37C166.88 176.48 166.66 175.92 166.37 174.86C166.356 174.821 166.329 174.788 166.293 174.768C166.257 174.748 166.214 174.741 166.174 174.75C166.133 174.758 166.097 174.782 166.073 174.815C166.048 174.848 166.036 174.889 166.04 174.93C166.16 175.93 166.29 177.09 166.49 178.11C166.49 178.21 169.84 192.83 169.87 192.93C166.71 193.08 133.57 194.76 130.64 194.03C130.93 190.8 131.31 187.95 131.7 185.55C131.7 185.45 135.47 166.06 135.52 165.83C135.53 165.789 135.524 165.746 135.503 165.709C135.483 165.672 135.45 165.644 135.41 165.63C135.37 165.617 135.326 165.618 135.287 165.635C135.249 165.651 135.217 165.682 135.2 165.72C133.902 169.095 133.159 172.658 133 176.27C131.67 174.8 120.71 162.66 120 161.37C123.769 158.085 127.993 155.36 132.54 153.28C136.79 151.293 141.337 150.016 146 149.5C145.449 149.859 144.99 150.342 144.66 150.91C144.29 151.74 145.2 153 146.08 153.32C151.93 155.46 156.71 154 159.36 151.01C159.94 150.36 159.91 150.22 159.93 149.84C169.63 152.53 176.8 158 182.11 167.71V167.67ZM170.6 192.59C170.1 190.59 169.92 189.19 169.39 186.52C169.71 186.47 186.18 184.52 188.11 184.29C188.909 186.798 189.504 189.367 189.89 191.97C187.28 192.1 173.18 192.94 170.6 192.59ZM146.1 138.26C146.971 135.185 148.321 132.266 150.1 129.61C151.79 130.09 153.58 130.09 155.27 129.61C155.13 130.27 155.82 130.61 156.47 130.83C156.322 131.064 156.222 131.325 156.175 131.598C156.129 131.871 156.137 132.151 156.2 132.42C156.243 132.673 156.344 132.911 156.494 133.118C156.645 133.324 156.842 133.493 157.07 133.61C157.403 133.774 157.761 133.879 158.13 133.92C157.941 134.263 157.842 134.649 157.842 135.04C157.842 135.432 157.941 135.817 158.13 136.16C158.311 136.444 158.553 136.684 158.84 136.86C158.669 137.019 158.521 137.201 158.4 137.4C157.78 138.62 157.45 140.68 158.76 141.13C158.981 141.196 159.22 141.172 159.424 141.064C159.628 140.955 159.781 140.771 159.85 140.55C160.26 139.68 160.99 139.38 161.36 140.23C161.84 141.32 159.92 142.37 159.41 143.23C159.17 143.62 158.7 144.1 158.98 144.67C159.09 144.9 159.05 144.67 159.06 145.19C159.16 150.32 159.32 149.83 158.75 150.47C156.31 153.19 151.86 154.55 146.36 152.53C146.113 152.42 145.894 152.254 145.721 152.046C145.548 151.838 145.424 151.593 145.36 151.33C145.36 151.25 145.41 151.18 145.48 151.09C146.111 150.416 146.831 149.831 147.62 149.35C147.93 149.12 148 148.97 148.17 148.35C148.34 147.73 148.4 147.15 148.52 146.79C149.08 145.12 144.45 145.18 146.1 138.26ZM155.93 118.8C155.447 118.527 154.899 118.392 154.344 118.411C153.79 118.431 153.252 118.604 152.79 118.91C149.86 119.02 119.65 120.26 117.08 118.91C117.01 118.38 116.95 116.77 116.91 114.61C119.02 115.35 130.51 115.36 132.75 115.37C134.37 115.37 162.91 114.73 167.56 114.54C169.63 114.45 186.77 113.54 187.23 113.45C187.259 114.832 187.216 116.214 187.1 117.59C187.1 117.59 170.05 118.28 155.93 118.8ZM187.14 108.22C139.33 109.3 118.62 109.98 116.83 109.22V103.84C120.83 104.84 157.02 103.99 160.18 103.9C163.58 103.8 184.8 102.9 186.97 102.76C187 104.54 187.09 106.41 187.14 108.22ZM116.84 109.62C120.19 110.72 158.01 109.77 160.3 109.71C163.73 109.61 185.3 108.65 187.15 108.56C187.15 110.19 187.22 111.76 187.23 113.13C158 113.91 119.54 115.48 116.9 114.27C116.87 112.88 116.85 111.28 116.84 109.62ZM186.94 102.43C148.59 103.3 118.94 104.21 116.81 103.52V98.9704C120.67 100.03 157.44 99.1104 160.19 99.0304C162.78 98.9604 184.19 98.1004 186.65 97.9204C186.78 99.2104 186.87 100.76 186.94 102.43ZM186.68 97.5504C148.08 98.4304 118.82 99.3404 116.87 98.6204C116.87 97.8304 116.87 96.6204 116.99 95.8104C131.21 96.6804 162.89 95.7204 186.47 95.1704C186.55 95.8604 186.63 96.8704 186.68 97.5504ZM113.37 95.4504C114.453 95.6197 115.545 95.7332 116.64 95.7904C116.27 99.6804 116.28 117.43 116.51 119.08C116.522 119.159 116.554 119.234 116.603 119.297C116.652 119.36 116.716 119.409 116.79 119.44C117.655 119.731 118.558 119.896 119.47 119.93C119.227 123.408 119.327 126.902 119.77 130.36C116.56 130.75 116.25 135.69 120.58 134.93C123.68 134.79 123.04 130.39 120.14 130.34C120.371 126.875 120.26 123.395 119.81 119.95C127 120.48 140.48 120.11 147.69 119.88C147.21 120.177 146.784 120.552 146.43 120.99C144.77 122.91 146.23 126.36 147.92 128.22C148.36 128.702 148.89 129.092 149.48 129.37C146.48 133.78 142.85 141.31 146.48 145.24C146.944 145.628 147.372 146.057 147.76 146.52C147.6 147.04 147.44 148.14 147.24 148.62C146.97 148.81 147.04 148.78 146.9 148.79C141.822 149.262 136.868 150.633 132.27 152.84C127.656 154.983 123.389 157.805 119.61 161.21C119.48 161.34 119.51 161.47 120.98 163.21L118.1 165.12C116.699 163.776 115.179 162.561 113.56 161.49C113.22 151.2 112 104.91 113.37 95.4504ZM120.05 131.18C120.481 131.17 120.901 131.314 121.236 131.585C121.571 131.856 121.799 132.237 121.88 132.66C122.2 134.02 121.02 135.05 119.18 134.41C117.34 133.77 118.17 131.24 120.05 131.18ZM103.91 169.12C101.668 165.396 99.7088 161.509 98.0498 157.49C97.8898 157.16 97.8698 157.09 97.2198 156.85C95.26 156.269 93.3504 155.53 91.5098 154.64C91.3992 154.571 91.2983 154.487 91.2098 154.39C91.0698 153.97 91.2098 153.91 91.4998 153.85C92.8098 153.62 95.4998 154.52 96.8598 154.23C97.0727 154.217 97.2758 154.137 97.4396 154C97.6033 153.863 97.719 153.678 97.7698 153.47C97.8398 153.29 98.2998 151.89 98.5498 152.01C99.6198 152.55 98.7898 154.84 100.22 155.06C103.63 155.55 115.95 163.32 117.89 165.58C117.927 165.617 117.977 165.638 118.03 165.638C118.082 165.638 118.132 165.617 118.17 165.58L121.17 163.49C123.92 166.83 130.1 173.85 132.91 177.02C132.69 177.78 127.33 182.91 124.64 183.32C115.75 184.69 108.65 176.82 103.91 169.12ZM115.35 193.48C114.87 192.01 114.42 183.22 114.35 181.66C117.422 183.662 121.127 184.457 124.75 183.89C127.11 183.49 131.07 179.89 132.67 177.99C131.371 183.25 130.462 188.597 129.95 193.99C122.85 194.12 117.62 194 115.35 193.48ZM193.23 192.07L190.74 192.14C190.91 189.51 185.6 172.34 182.84 167.31C177.42 157.46 170.11 151.81 159.93 149.08C159.93 148.29 159.93 147.47 159.8 145.26C159.978 145.261 160.155 145.223 160.317 145.149C160.479 145.075 160.624 144.966 160.74 144.83C161.076 145.092 161.471 145.267 161.89 145.34C163.44 145.61 165.95 144.08 165.76 142.76C166.562 142.782 167.352 142.555 168.02 142.11C169.17 141.39 170.51 139.85 170.34 138.58C170.17 137.31 169.77 138.05 170.75 137.42C171.709 136.751 172.386 135.75 172.65 134.61C172.77 133.874 172.743 133.122 172.571 132.396C172.4 131.67 172.086 130.985 171.65 130.38C171.495 130.168 171.287 130 171.046 129.895C170.805 129.789 170.541 129.75 170.28 129.78C170.18 129.78 170.2 129.85 170.52 129.23C170.619 129.063 170.69 128.881 170.73 128.69C170.777 128.019 170.675 127.345 170.431 126.718C170.187 126.09 169.808 125.524 169.32 125.06C169.024 124.753 168.644 124.54 168.227 124.449C167.811 124.359 167.376 124.394 166.98 124.55C166.98 124.55 166.54 124.74 166.4 124.78C166.4 124.42 166.45 123.92 166.4 123.78C166.329 123.243 166.134 122.729 165.83 122.279C165.526 121.83 165.122 121.457 164.65 121.19C163.512 120.761 162.257 120.761 161.12 121.19C160.824 120.44 160.271 119.82 159.56 119.44C160.21 119.44 186.76 118.44 187.42 118.44C187.509 118.436 187.594 118.403 187.664 118.348C187.734 118.292 187.785 118.216 187.81 118.13C188.4 115.99 187.65 98.4704 187.26 95.1304L190.41 95.0504C192.28 110.58 195.13 186.21 193.23 192.07Z" fill="black"/>
<path d="M149.1 134.571L149.56 133.921C149.623 133.829 149.648 133.716 149.628 133.606C149.609 133.497 149.546 133.399 149.455 133.336C149.363 133.272 149.25 133.247 149.141 133.267C149.031 133.287 148.933 133.349 148.87 133.441L148.4 134.091C148.336 134.183 148.312 134.298 148.333 134.408C148.353 134.519 148.417 134.617 148.51 134.681C148.603 134.744 148.717 134.768 148.828 134.748C148.938 134.727 149.036 134.663 149.1 134.571ZM149.71 139.141C149.89 139.271 150.08 138.991 149.89 138.861C149.28 138.311 148.97 138.031 148.83 137.861C148.69 137.691 148.77 137.731 148.83 137.621C149.02 137.171 149.83 136.191 151.06 134.321C151.089 134.286 151.103 134.241 151.099 134.196C151.096 134.151 151.074 134.11 151.04 134.081C151.005 134.051 150.961 134.037 150.916 134.041C150.871 134.045 150.829 134.066 150.8 134.101C150.108 134.648 149.481 135.272 148.93 135.961C147.32 138.001 147.84 138.261 149.71 139.141ZM152.64 136.661C152.73 136.441 152.91 136.151 153.02 135.911C153.043 135.86 153.056 135.805 153.057 135.75C153.059 135.694 153.05 135.639 153.031 135.587C153.011 135.535 152.982 135.487 152.944 135.447C152.906 135.406 152.86 135.374 152.81 135.351C152.759 135.328 152.705 135.315 152.649 135.313C152.594 135.311 152.538 135.32 152.486 135.34C152.434 135.359 152.387 135.389 152.346 135.427C152.305 135.464 152.273 135.51 152.25 135.561C152.15 135.781 151.98 136.051 151.86 136.341C151.839 136.392 151.828 136.447 151.828 136.502C151.828 136.557 151.839 136.612 151.861 136.663C151.882 136.714 151.913 136.761 151.953 136.8C151.992 136.839 152.039 136.87 152.09 136.891C152.141 136.912 152.196 136.922 152.251 136.922C152.307 136.922 152.361 136.911 152.412 136.889C152.463 136.868 152.51 136.837 152.549 136.798C152.588 136.758 152.619 136.712 152.64 136.661ZM149.28 142.621C149.589 142.67 149.907 142.646 150.205 142.551C150.504 142.455 150.776 142.291 151 142.071C151.202 141.838 151.337 141.554 151.39 141.251C151.407 141.231 151.419 141.209 151.427 141.184C151.434 141.16 151.435 141.134 151.431 141.109C151.427 141.083 151.417 141.059 151.402 141.039C151.387 141.018 151.368 141 151.345 140.988C151.323 140.976 151.298 140.969 151.273 140.967C151.247 140.966 151.221 140.97 151.198 140.98C151.174 140.99 151.153 141.005 151.136 141.024C151.119 141.043 151.107 141.066 151.1 141.091C150.752 141.368 150.364 141.59 149.95 141.751C149.516 141.863 149.068 141.914 148.62 141.901C148.599 141.888 148.575 141.88 148.551 141.877C148.527 141.874 148.502 141.876 148.479 141.884C148.456 141.891 148.434 141.904 148.416 141.921C148.398 141.937 148.384 141.957 148.374 141.98C148.365 142.002 148.361 142.027 148.361 142.051C148.362 142.076 148.368 142.1 148.379 142.122C148.39 142.144 148.406 142.163 148.425 142.178C148.444 142.194 148.466 142.205 148.49 142.211C148.715 142.41 148.987 142.551 149.28 142.621ZM154.76 169.091C152.57 167.391 150.17 168.041 148.29 170.091C146.76 166.931 143.93 165.961 140.5 168.621C135.33 172.621 144.3 183.821 145.5 184.211C145.603 184.251 145.717 184.251 145.82 184.211C146.25 183.981 156.34 178.561 156.82 173.271C156.881 172.453 156.722 171.635 156.36 170.9C155.997 170.165 155.445 169.54 154.76 169.091Z" fill="black"/>
</svg>
